<svg width="90" height="123" viewBox="0 0 90 123" fill="none" xmlns="http://www.w3.org/2000/svg">
<path d="M61.025 6H28.775C25.8065 6 23.4 8.57436 23.4 11.75V23.25C23.4 26.4256 25.8065 29 28.775 29H61.025C63.9935 29 66.4 26.4256 66.4 23.25V11.75C66.4 8.57436 63.9935 6 61.025 6Z" stroke="#F9C2FC" stroke-width="3.75" stroke-linecap="round" stroke-linejoin="round"/>
<path d="M66.4 17.5H77.15C80.0011 17.5 82.7354 18.7116 84.7514 20.8683C86.7674 23.0249 87.9 25.95 87.9 29V109.5C87.9 112.55 86.7674 115.475 84.7514 117.632C82.7354 119.788 80.0011 121 77.15 121H12.65C9.79892 121 7.06462 119.788 5.0486 117.632C3.03259 115.475 1.9 112.55 1.9 109.5V29C1.9 25.95 3.03259 23.0249 5.0486 20.8683C7.06462 18.7116 9.79892 17.5 12.65 17.5H23.4" stroke="#F9C2FC" stroke-width="3.8" stroke-linecap="round" stroke-linejoin="round"/>
<path d="M12.068 72.208C12.068 65.552 13.508 59.632 16.388 54.448C19.268 49.2 23.268 45.136 28.388 42.256C33.572 39.312 39.428 37.84 45.956 37.84C53.956 37.84 60.804 39.952 66.5 44.176C72.196 48.4 76.004 54.16 77.924 61.456H59.876C58.532 58.64 56.612 56.496 54.116 55.024C51.684 53.552 48.9 52.816 45.764 52.816C40.708 52.816 36.612 54.576 33.476 58.096C30.34 61.616 28.772 66.32 28.772 72.208C28.772 78.096 30.34 82.8 33.476 86.32C36.612 89.84 40.708 91.6 45.764 91.6C48.9 91.6 51.684 90.864 54.116 89.392C56.612 87.92 58.532 85.776 59.876 82.96H77.924C76.004 90.256 72.196 96.016 66.5 100.24C60.804 104.4 53.956 106.48 45.956 106.48C39.428 106.48 33.572 105.04 28.388 102.16C23.268 99.216 19.268 95.152 16.388 89.968C13.508 84.784 12.068 78.864 12.068 72.208Z" fill="#F9C2FC"/>
</svg>
