<svg width="596" height="171" viewBox="0 0 596 171" fill="none" xmlns="http://www.w3.org/2000/svg">
<path d="M91.5072 14.25H54.9043C51.5351 14.25 48.8038 17.44 48.8038 21.375V35.625C48.8038 39.56 51.5351 42.75 54.9043 42.75H91.5072C94.8764 42.75 97.6077 39.56 97.6077 35.625V21.375C97.6077 17.44 94.8764 14.25 91.5072 14.25Z" stroke="#F9C2FC" stroke-width="10" stroke-linecap="round" stroke-linejoin="round"/>
<path d="M97.6077 28.5H109.809C113.045 28.5 116.148 30.0013 118.436 32.6737C120.724 35.3461 122.01 38.9707 122.01 42.75V142.5C122.01 146.279 120.724 149.904 118.436 152.576C116.148 155.249 113.045 156.75 109.809 156.75H36.6029C33.367 156.75 30.2636 155.249 27.9755 152.576C25.6874 149.904 24.4019 146.279 24.4019 142.5V42.75C24.4019 38.9707 25.6874 35.3461 27.9755 32.6737C30.2636 30.0013 33.367 28.5 36.6029 28.5H48.8038" stroke="#F9C2FC" stroke-width="10" stroke-linecap="round" stroke-linejoin="round"/>
<path d="M73.2057 78.375H97.6077" stroke="#F9C2FC" stroke-width="10" stroke-linecap="round" stroke-linejoin="round"/>
<path d="M73.2057 114H97.6077" stroke="#F9C2FC" stroke-width="10" stroke-linecap="round" stroke-linejoin="round"/>
<path d="M48.8038 78.375H48.8641" stroke="#F9C2FC" stroke-width="10" stroke-linecap="round" stroke-linejoin="round"/>
<path d="M48.8038 114H48.8641" stroke="#F9C2FC" stroke-width="10" stroke-linecap="round" stroke-linejoin="round"/>
<path d="M148.805 64.08C148.805 58.1867 150.08 52.945 152.63 48.355C155.18 43.7083 158.722 40.11 163.255 37.56C167.845 34.9533 173.03 33.65 178.81 33.65C185.893 33.65 191.957 35.52 197 39.26C202.043 43 205.415 48.1 207.115 54.56H191.135C189.945 52.0667 188.245 50.1683 186.035 48.865C183.882 47.5617 181.417 46.91 178.64 46.91C174.163 46.91 170.537 48.4683 167.76 51.585C164.983 54.7017 163.595 58.8667 163.595 64.08C163.595 69.2933 164.983 73.4583 167.76 76.575C170.537 79.6917 174.163 81.25 178.64 81.25C181.417 81.25 183.882 80.5983 186.035 79.295C188.245 77.9917 189.945 76.0933 191.135 73.6H207.115C205.415 80.06 202.043 85.16 197 88.9C191.957 92.5833 185.893 94.425 178.81 94.425C173.03 94.425 167.845 93.15 163.255 90.6C158.722 87.9933 155.18 84.395 152.63 79.805C150.08 75.215 148.805 69.9733 148.805 64.08ZM253.161 83.46H230.891L227.321 94H212.106L233.696 34.33H250.526L272.116 94H256.731L253.161 83.46ZM249.421 72.24L242.026 50.395L234.716 72.24H249.421ZM346.262 34.33V94H331.727V58.215L318.382 94H306.652L293.222 58.13V94H278.687V34.33H295.857L312.602 75.64L329.177 34.33H346.262ZM371.249 34.33V94H356.714V34.33H371.249ZM396.318 82.78H415.358V94H381.783V34.33H396.318V82.78ZM459.436 83.46H437.166L433.596 94H418.381L439.971 34.33H456.801L478.391 94H463.006L459.436 83.46ZM455.696 72.24L448.301 50.395L440.991 72.24H455.696ZM488.276 34.33H503.151L493.631 57.11H483.856L488.276 34.33ZM533.28 94.595C528.917 94.595 525.007 93.8867 521.55 92.47C518.093 91.0533 515.317 88.9567 513.22 86.18C511.18 83.4033 510.103 80.06 509.99 76.15H525.46C525.687 78.36 526.452 80.06 527.755 81.25C529.058 82.3833 530.758 82.95 532.855 82.95C535.008 82.95 536.708 82.4683 537.955 81.505C539.202 80.485 539.825 79.0967 539.825 77.34C539.825 75.8667 539.315 74.6483 538.295 73.685C537.332 72.7217 536.113 71.9283 534.64 71.305C533.223 70.6817 531.183 69.9733 528.52 69.18C524.667 67.99 521.522 66.8 519.085 65.61C516.648 64.42 514.552 62.6633 512.795 60.34C511.038 58.0167 510.16 54.985 510.16 51.245C510.16 45.6917 512.172 41.3567 516.195 38.24C520.218 35.0667 525.46 33.48 531.92 33.48C538.493 33.48 543.792 35.0667 547.815 38.24C551.838 41.3567 553.992 45.72 554.275 51.33H538.55C538.437 49.4033 537.728 47.9017 536.425 46.825C535.122 45.6917 533.45 45.125 531.41 45.125C529.653 45.125 528.237 45.6067 527.16 46.57C526.083 47.4767 525.545 48.8083 525.545 50.565C525.545 52.4917 526.452 53.9933 528.265 55.07C530.078 56.1467 532.912 57.3083 536.765 58.555C540.618 59.8583 543.735 61.105 546.115 62.295C548.552 63.485 550.648 65.2133 552.405 67.48C554.162 69.7467 555.04 72.665 555.04 76.235C555.04 79.635 554.162 82.7233 552.405 85.5C550.705 88.2767 548.212 90.4867 544.925 92.13C541.638 93.7733 537.757 94.595 533.28 94.595Z" fill="#F9C2FC"/>
<path d="M164.912 148.336C161.744 148.336 158.832 147.6 156.176 146.128C153.552 144.656 151.456 142.608 149.888 139.984C148.352 137.328 147.584 134.352 147.584 131.056C147.584 127.76 148.352 124.8 149.888 122.176C151.456 119.552 153.552 117.504 156.176 116.032C158.832 114.56 161.744 113.824 164.912 113.824C168.08 113.824 170.976 114.56 173.6 116.032C176.256 117.504 178.336 119.552 179.84 122.176C181.376 124.8 182.144 127.76 182.144 131.056C182.144 134.352 181.376 137.328 179.84 139.984C178.304 142.608 176.224 144.656 173.6 146.128C170.976 147.6 168.08 148.336 164.912 148.336ZM164.912 140.848C167.6 140.848 169.744 139.952 171.344 138.16C172.976 136.368 173.792 134 173.792 131.056C173.792 128.08 172.976 125.712 171.344 123.952C169.744 122.16 167.6 121.264 164.912 121.264C162.192 121.264 160.016 122.144 158.384 123.904C156.784 125.664 155.984 128.048 155.984 131.056C155.984 134.032 156.784 136.416 158.384 138.208C160.016 139.968 162.192 140.848 164.912 140.848ZM203.894 148L196.886 135.28H194.918V148H186.71V114.304H200.486C203.142 114.304 205.398 114.768 207.254 115.696C209.142 116.624 210.55 117.904 211.478 119.536C212.406 121.136 212.87 122.928 212.87 124.912C212.87 127.152 212.23 129.152 210.95 130.912C209.702 132.672 207.846 133.92 205.382 134.656L213.158 148H203.894ZM194.918 129.472H200.006C201.51 129.472 202.63 129.104 203.366 128.368C204.134 127.632 204.518 126.592 204.518 125.248C204.518 123.968 204.134 122.96 203.366 122.224C202.63 121.488 201.51 121.12 200.006 121.12H194.918V129.472ZM240.391 124.96C239.783 123.84 238.903 122.992 237.751 122.416C236.631 121.808 235.303 121.504 233.767 121.504C231.111 121.504 228.983 122.384 227.383 124.144C225.783 125.872 224.983 128.192 224.983 131.104C224.983 134.208 225.815 136.64 227.479 138.4C229.175 140.128 231.495 140.992 234.439 140.992C236.455 140.992 238.151 140.48 239.527 139.456C240.935 138.432 241.959 136.96 242.599 135.04H232.183V128.992H250.039V136.624C249.431 138.672 248.391 140.576 246.919 142.336C245.479 144.096 243.639 145.52 241.399 146.608C239.159 147.696 236.631 148.24 233.815 148.24C230.487 148.24 227.511 147.52 224.887 146.08C222.295 144.608 220.263 142.576 218.791 139.984C217.351 137.392 216.631 134.432 216.631 131.104C216.631 127.776 217.351 124.816 218.791 122.224C220.263 119.6 222.295 117.568 224.887 116.128C227.479 114.656 230.439 113.92 233.767 113.92C237.799 113.92 241.191 114.896 243.943 116.848C246.727 118.8 248.567 121.504 249.463 124.96H240.391ZM275.561 142.048H262.985L260.969 148H252.377L264.569 114.304H274.073L286.265 148H277.577L275.561 142.048ZM273.449 135.712L269.273 123.376L265.145 135.712H273.449ZM320.12 148H311.912L298.184 127.216V148H289.976V114.304H298.184L311.912 135.184V114.304H320.12V148ZM334.278 114.304V148H326.07V114.304H334.278ZM348.962 141.28H363.458V148H339.65V141.76L354.05 121.024H339.65V114.304H363.458V120.544L348.962 141.28ZM389.796 142.048H377.22L375.204 148H366.612L378.804 114.304H388.308L400.5 148H391.812L389.796 142.048ZM387.684 135.712L383.508 123.376L379.38 135.712H387.684ZM428.45 114.304V120.88H419.522V148H411.314V120.88H402.386V114.304H428.45ZM440.778 114.304V148H432.57V114.304H440.778ZM462.662 148.336C459.494 148.336 456.582 147.6 453.926 146.128C451.302 144.656 449.206 142.608 447.638 139.984C446.102 137.328 445.334 134.352 445.334 131.056C445.334 127.76 446.102 124.8 447.638 122.176C449.206 119.552 451.302 117.504 453.926 116.032C456.582 114.56 459.494 113.824 462.662 113.824C465.83 113.824 468.726 114.56 471.35 116.032C474.006 117.504 476.086 119.552 477.59 122.176C479.126 124.8 479.894 127.76 479.894 131.056C479.894 134.352 479.126 137.328 477.59 139.984C476.054 142.608 473.974 144.656 471.35 146.128C468.726 147.6 465.83 148.336 462.662 148.336ZM462.662 140.848C465.35 140.848 467.494 139.952 469.094 138.16C470.726 136.368 471.542 134 471.542 131.056C471.542 128.08 470.726 125.712 469.094 123.952C467.494 122.16 465.35 121.264 462.662 121.264C459.942 121.264 457.766 122.144 456.134 123.904C454.534 125.664 453.734 128.048 453.734 131.056C453.734 134.032 454.534 136.416 456.134 138.208C457.766 139.968 459.942 140.848 462.662 140.848ZM514.604 148H506.396L492.668 127.216V148H484.46V114.304H492.668L506.396 135.184V114.304H514.604V148Z" fill="#F9C2FC"/>
</svg>
